HIERARCHY
ROOT SpineBase
{
  OFFSET 0.000000 0.000000 0.000000
  CHANNELS 6 Xposition Yposition Zposition Zrotation Xrotation Yrotation
  JOINT SpineMid
  {
    OFFSET 0.000000 29.088808 -0.000000
    CHANNELS 3 Zrotation Xrotation Yrotation
    JOINT SpineShoulder
    {
      OFFSET -0.014412 21.670242 -0.700619
      CHANNELS 3 Zrotation Xrotation Yrotation
      JOINT Neck
      {
        OFFSET 0.007661 7.198689 -0.537356
        CHANNELS 3 Zrotation Xrotation Yrotation
        JOINT Head
        {
          OFFSET -2.236690 13.863006 -0.532532
          CHANNELS 3 Zrotation Xrotation Yrotation
          End Site
          {
            OFFSET 0 0 0
          }
        }
      }
      JOINT ShoulderLeft
      {
        OFFSET -16.550191 -2.595788 5.371539
        CHANNELS 3 Zrotation Xrotation Yrotation
        JOINT ElbowLeft
        {
          OFFSET -0.517630 -29.889592 8.557486
          CHANNELS 3 Zrotation Xrotation Yrotation
          JOINT WristLeft
          {
            OFFSET -3.529730 -22.124253 4.945543
            CHANNELS 3 Zrotation Xrotation Yrotation
            JOINT HandLeft
            {
              OFFSET -0.640306 -5.333776 2.101391
              CHANNELS 3 Zrotation Xrotation Yrotation
              JOINT HandTipLeft
              {
                OFFSET 0.071186 -8.814464 5.369558
                CHANNELS 3 Zrotation Xrotation Yrotation
                End Site
                {
                  OFFSET 0 0 0
                }
              }
              JOINT ThumbLeft
              {
                OFFSET 2.854202 0.378681 -3.082879
                CHANNELS 3 Zrotation Xrotation Yrotation
                End Site
                {
                  OFFSET 0 0 0
                }
              }
            }
          }
        }
      }
      JOINT ShoulderRight
      {
        OFFSET 14.929688 -3.327820 -7.164379
        CHANNELS 3 Zrotation Xrotation Yrotation
        JOINT ElbowRight
        {
          OFFSET 5.353465 -26.829257 -1.437043
          CHANNELS 3 Zrotation Xrotation Yrotation
          JOINT WristRight
          {
            OFFSET -0.378703 -22.706642 -6.086377
            CHANNELS 3 Zrotation Xrotation Yrotation
            JOINT HandRight
            {
              OFFSET -1.191063 -6.119953 -0.617165
              CHANNELS 3 Zrotation Xrotation Yrotation
              JOINT HandTipRight
              {
                OFFSET -0.258486 -7.591040 -1.090853
                CHANNELS 3 Zrotation Xrotation Yrotation
                End Site
                {
                  OFFSET 0 0 0
                }
              }
              JOINT ThumbRight
              {
                OFFSET -3.436673 0.476566 -0.393209
                CHANNELS 3 Zrotation Xrotation Yrotation
                End Site
                {
                  OFFSET 0 0 0
                }
              }
            }
          }
        }
      }
    }
  }
  JOINT HipLeft
  {
    OFFSET -6.804377 0.159456 -1.316580
    CHANNELS 3 Zrotation Xrotation Yrotation
    JOINT KneeLeft
    {
      OFFSET -0.755258 -33.627133 8.941575
      CHANNELS 3 Zrotation Xrotation Yrotation
      JOINT AnkleLeft
      {
        OFFSET 3.276915 -34.580144 8.377926
        CHANNELS 3 Zrotation Xrotation Yrotation
        JOINT FootLeft
        {
          OFFSET -3.319631 -8.112909 -2.408502
          CHANNELS 3 Zrotation Xrotation Yrotation
          End Site
          {
            OFFSET 0 0 0
          }
        }
      }
    }
  }
  JOINT HipRight
  {
    OFFSET 7.001769 1.808724 -5.179831
    CHANNELS 3 Zrotation Xrotation Yrotation
    JOINT KneeRight
    {
      OFFSET 7.129802 -29.877746 -0.951336
      CHANNELS 3 Zrotation Xrotation Yrotation
      JOINT AnkleRight
      {
        OFFSET 4.476485 -39.792759 11.363808
        CHANNELS 3 Zrotation Xrotation Yrotation
        JOINT FootRight
        {
          OFFSET -3.803351 -3.861032 -12.819246
          CHANNELS 3 Zrotation Xrotation Yrotation
          End Site
          {
            OFFSET 0 0 0
          }
        }
      }
    }
  }
}
MOTION
Frames: 8
Frame Time: 0.033333
-10.357889 77.576420 340.938230 -0.488697 0.154453 15.966319 0.427364 -0.282916 -15.964605 -0.000000 0.000000 0.000000 -0.000000 0.000000 0.000000 0.000000 0.000000 0.000000 -1.743530 -0.228233 -0.498318 1.741494 0.243280 0.491148 0.466857 -0.986186 0.305455 -0.461662 0.988629 -0.297454 0.000000 0.000000 0.000000 0.000000 0.000000 0.000000 -0.000000 0.000000 0.000000 -0.000000 0.000000 0.000000 0.335974 5.239692 -1.065374 -1.565767 -11.189634 1.256856 0.000000 0.000000 0.000000 0.000000 0.000000 0.000000 0.427364 -0.282916 -15.964605 -0.000000 0.000000 0.000000 -1.069059 26.502063 -9.729967 0.000000 0.000000 0.000000 0.558237 0.757027 -15.712845 -0.688910 0.136227 -0.369119 1.750743 -4.161195 0.156772 0.000000 0.000000 0.000000
-10.428282 77.587250 340.967708 -0.690452 0.114877 15.834285 0.632916 -0.298900 -15.831942 -0.000000 0.000000 0.000000 -0.000000 0.000000 0.000000 0.000000 0.000000 0.000000 -1.835133 -0.285742 -0.524554 1.832465 0.302381 0.515141 0.669443 -1.449210 0.444294 -0.658399 1.454260 -0.427472 0.000000 0.000000 0.000000 0.000000 0.000000 0.000000 1.259400 0.179962 -0.033452 -1.605687 2.144351 0.088846 0.263691 0.655740 -0.618107 1.764039 -3.452431 0.446202 0.000000 0.000000 0.000000 0.000000 0.000000 0.000000 0.632916 -0.298900 -15.831942 -0.000000 0.000000 0.000000 -1.693475 36.027258 -12.819448 0.000000 0.000000 0.000000 -0.583633 1.779432 -15.361426 2.049416 5.149797 0.422880 1.061445 -10.046637 -2.598644 0.000000 0.000000 0.000000
-10.534171 77.759680 341.043003 -0.902408 -0.120367 16.351203 -0.176577 -0.106640 -16.387229 0.086541 -0.080791 -0.037937 0.954893 0.354432 0.067966 0.000000 0.000000 0.000000 -0.826380 0.222808 -0.430582 1.780205 0.145111 0.505268 0.801505 -1.754805 0.535944 -0.785429 1.762057 -0.511590 0.000000 0.000000 0.000000 0.000000 0.000000 0.000000 2.689828 -0.588794 -0.209272 -3.193999 7.677377 0.666270 2.114594 -10.980746 0.685085 2.321340 10.131840 -1.715650 0.000000 0.000000 0.000000 0.000000 0.000000 0.000000 1.483764 0.693868 -16.288694 -0.327107 -0.962780 -0.067947 -2.772587 43.907171 -14.928614 0.000000 0.000000 0.000000 -2.815245 2.234630 -15.850189 6.100764 12.600268 1.570756 -0.935332 -18.628123 -2.432717 0.000000 0.000000 0.000000
-11.367946 78.546609 341.392875 -2.248272 -0.555214 18.534705 0.528327 0.066141 -18.601091 0.014038 0.019485 -0.072963 0.593604 -1.920696 -0.294956 0.000000 0.000000 0.000000 -3.107463 -1.257505 -1.274531 4.826984 1.669700 1.289769 1.001853 -6.726432 1.234675 -0.862993 6.745566 -1.124938 0.000000 0.000000 0.000000 0.000000 0.000000 0.000000 -0.068707 -1.253693 -0.103286 0.401198 13.104410 0.537588 4.351692 -27.666579 3.932568 2.843995 28.911372 -5.461992 0.000000 0.000000 0.000000 0.000000 0.000000 0.000000 4.586566 1.945305 -18.242401 -2.396150 -2.948458 -0.652237 -3.528071 49.010637 -15.324785 0.000000 0.000000 0.000000 -3.551054 1.584323 -18.316389 9.705793 21.633985 2.745339 -4.252716 -28.983536 0.472941 0.000000 0.000000 0.000000
-11.877898 78.456475 341.010642 -2.048520 0.226615 18.581062 1.257892 -0.022481 -18.594658 0.117448 0.009674 -0.027549 -3.676674 -3.868094 -0.811609 0.000000 0.000000 0.000000 -3.016218 -1.296384 -1.062639 3.735174 0.747992 1.034917 1.156809 -5.656526 1.171111 0.754098 5.845709 -0.151157 0.000000 0.000000 0.000000 0.000000 0.000000 0.000000 -0.212460 -1.380145 -0.059331 -1.327903 14.867809 0.750360 6.702346 -40.031283 6.960645 9.160948 41.478601 -12.081809 0.000000 0.000000 0.000000 0.000000 0.000000 0.000000 5.752432 0.295189 -17.710100 -4.645168 -2.338851 -1.273885 -5.117815 51.383367 -14.728944 0.000000 0.000000 0.000000 -8.702425 -0.658783 -19.153074 15.361738 31.662537 3.523807 -8.445566 -41.445833 8.362630 0.000000 0.000000 0.000000
-11.749994 77.059838 338.905798 0.940442 3.665656 15.324554 1.237886 0.360709 -15.260025 -0.199816 0.032310 0.056015 -13.036820 -9.427711 -2.839795 0.000000 0.000000 0.000000 -0.937685 -1.944961 0.065280 -0.915097 -2.422273 -0.237919 3.280777 7.619337 0.163193 -4.889760 -7.032851 -1.745434 0.000000 0.000000 0.000000 0.000000 0.000000 0.000000 6.910314 3.864557 0.993959 -13.917495 2.640510 -0.803884 7.070231 -44.612669 7.041894 19.082443 47.696574 -20.441504 0.000000 0.000000 0.000000 0.000000 0.000000 0.000000 1.179556 -6.844305 -14.053859 -5.586159 2.742713 -1.335666 -7.639430 51.957463 -12.782727 0.000000 0.000000 0.000000 -21.243846 -10.043513 -20.110396 24.700664 47.368127 2.764870 -12.226966 -58.114788 27.254184 0.000000 0.000000 0.000000
-10.205210 73.930612 340.424589 5.234527 2.784411 14.644187 1.074164 0.590096 -14.593306 -0.250845 0.340113 0.209238 -20.545728 -6.692947 -3.082855 0.000000 0.000000 0.000000 4.105129 4.367272 2.092549 -8.396445 -6.775714 -2.993827 -1.541449 15.649771 -2.345810 -1.241040 -11.824684 0.896726 0.000000 0.000000 0.000000 0.000000 0.000000 0.000000 14.118631 9.498885 -0.001385 -26.226736 -2.969649 -3.219158 5.233862 -49.301904 6.835188 30.931513 48.166546 -30.015714 0.000000 0.000000 0.000000 0.000000 0.000000 0.000000 -5.369530 -3.828877 -14.501471 -2.755492 3.058502 -0.571983 -9.944352 49.147877 -10.734553 0.000000 0.000000 0.000000 -34.665143 -5.150039 -18.540161 37.461372 49.414714 0.556773 7.835499 -71.968411 80.531945 0.000000 0.000000 0.000000
-6.822279 73.019760 338.358795 11.795947 5.231754 14.838603 0.890394 0.841438 -15.057059 -0.632668 -0.027612 0.439540 -27.440724 -3.377824 -3.068696 0.000000 0.000000 0.000000 15.959042 14.105524 4.526058 -29.155010 -15.597698 -12.005510 -4.892342 25.410758 -4.400889 1.095962 -18.012165 2.076715 0.000000 0.000000 0.000000 0.000000 0.000000 0.000000 26.632817 5.316055 -0.940190 -45.689602 0.545786 -2.911401 3.377843 -54.651011 6.002127 40.144891 46.291856 -37.333150 0.000000 0.000000 0.000000 0.000000 0.000000 0.000000 -18.892757 -7.143609 -17.111202 1.119971 7.198770 0.427305 -7.601620 47.144522 -10.342025 0.000000 0.000000 0.000000 -52.137409 -5.969003 -21.229407 48.727034 52.141751 -2.810767 48.327079 -67.759932 150.441120 0.000000 0.000000 0.000000
